<?xml version="1.0" encoding="UTF-8"?>
<svg id="Capa_1" data-name="Capa 1" xmlns="http://www.w3.org/2000/svg" xmlns:xlink="http://www.w3.org/1999/xlink" viewBox="0 0 300 300">
  <defs>
    <style>
      .cls-1 {
        fill: url(#Degradado_sin_nombre_53);
      }

      .cls-1, .cls-2, .cls-3, .cls-4, .cls-5, .cls-6 {
        stroke-width: 0px;
      }

      .cls-2 {
        fill: url(#Zanahoria-2);
      }

      .cls-3 {
        fill: url(#Zanahoria-4);
      }

      .cls-4 {
        fill: url(#Zanahoria-3);
      }

      .cls-5 {
        fill: url(#Zanahoria);
      }

      .cls-6 {
        fill: #fff;
      }
    </style>
    <linearGradient id="Zanahoria" x1="60.85" y1="172.39" x2="123.08" y2="172.39" gradientTransform="translate(62.59 -43.15) rotate(20.63)" gradientUnits="userSpaceOnUse">
      <stop offset=".02" stop-color="#c66706"/>
      <stop offset=".07" stop-color="#d0751e"/>
      <stop offset=".11" stop-color="#d98131"/>
      <stop offset=".14" stop-color="#e38530"/>
      <stop offset=".19" stop-color="#ee892f"/>
      <stop offset=".24" stop-color="#f28b2f"/>
      <stop offset=".33" stop-color="#f28c31"/>
      <stop offset=".36" stop-color="#f28f38"/>
      <stop offset=".39" stop-color="#f29544"/>
      <stop offset=".41" stop-color="#f29e56"/>
      <stop offset=".43" stop-color="#f3aa6d"/>
      <stop offset=".51" stop-color="#f29d54"/>
      <stop offset=".6" stop-color="#f28b2f"/>
      <stop offset=".8" stop-color="#ec862a"/>
      <stop offset=".82" stop-color="#ec892f"/>
      <stop offset=".85" stop-color="#ee9240"/>
      <stop offset=".88" stop-color="#f1a05b"/>
      <stop offset=".89" stop-color="#f3aa6d"/>
      <stop offset=".96" stop-color="#f8bf85"/>
      <stop offset="1" stop-color="#fccf97"/>
    </linearGradient>
    <linearGradient id="Zanahoria-2" data-name="Zanahoria" x1="78.02" y1="87.91" x2="162.54" y2="87.91" xlink:href="#Zanahoria"/>
    <linearGradient id="Zanahoria-3" data-name="Zanahoria" x1="50.68" y1="135.79" x2="136.57" y2="135.79" xlink:href="#Zanahoria"/>
    <linearGradient id="Zanahoria-4" data-name="Zanahoria" x1="83.36" y1="225.02" x2="197.27" y2="225.02" xlink:href="#Zanahoria"/>
    <linearGradient id="Degradado_sin_nombre_53" data-name="Degradado sin nombre 53" x1="49.46" y1="209.26" x2="132.16" y2="209.26" gradientTransform="translate(62.59 -43.15) rotate(20.63)" gradientUnits="userSpaceOnUse">
      <stop offset=".02" stop-color="#c66706"/>
      <stop offset=".07" stop-color="#d0751e"/>
      <stop offset=".11" stop-color="#d98131"/>
      <stop offset=".14" stop-color="#e38530"/>
      <stop offset=".19" stop-color="#ee892f"/>
      <stop offset=".24" stop-color="#f28b2f"/>
      <stop offset=".33" stop-color="#f28c31"/>
      <stop offset=".36" stop-color="#f28f38"/>
      <stop offset=".39" stop-color="#f29544"/>
      <stop offset=".41" stop-color="#f29e56"/>
      <stop offset=".43" stop-color="#f3aa6d"/>
      <stop offset=".51" stop-color="#f29d54"/>
      <stop offset=".6" stop-color="#f28b2f"/>
      <stop offset=".8" stop-color="#ec862a"/>
      <stop offset=".82" stop-color="#ec892f"/>
      <stop offset=".85" stop-color="#ee9240"/>
      <stop offset=".88" stop-color="#f1a05b"/>
      <stop offset=".89" stop-color="#f3aa6d"/>
      <stop offset=".96" stop-color="#f8bf85"/>
      <stop offset="1" stop-color="#fccf97"/>
    </linearGradient>
  </defs>
  <g>
    <g>
      <path class="cls-5" d="M118.36,142.92h-52.98c-2.07,0-4.13.46-5.95,1.47-1.42.79-2.88,1.99-3.79,3.78-.69,1.35-1.06,3.06-.77,5.21,1.01,7.58,13.13,7.15,13.13,7.15,0,0,32.96.11,49.43,0"/>
      <path class="cls-2" d="M185.23,73.32l-78.07.64s-8.41,1.44-7.72,8.82c.69,7.38,6.32,7.69,6.32,7.69,26.74-.03,53.48,0,80.23-.04"/>
      <path class="cls-6" d="M185.24,73.29l-8.33.1s-9.19-.86-9.88,8c-.63,8.2,6.8,9.03,6.8,9.03l46.17.04s25.04.17,27.1,24.52c2.25,26.52-19.89,27.36-19.89,27.36l-109.16.58s-8.67.73-8.77,9.2c-.08,7.25,8.18,8.4,8.18,8.4l110.39-.57s38.8.29,36.2-45.98c-2.44-43.53-51.28-40.58-51.28-40.58l-27.55-.1Z"/>
    </g>
    <g>
      <path class="cls-4" d="M142.18,108.67h-75.02c-1.8,0-3.6.34-5.23,1.09-1.31.61-2.7,1.54-3.66,2.96-.82,1.21-1.34,2.83-1.26,4.99.31,8.39,8.38,7.66,8.38,7.66h79.69"/>
      <path class="cls-6" d="M174.86,108.56l-32.85.1s-8.56.39-8.7,8.57c-.11,6.82,8.44,8.17,8.44,8.17l34.22-.24,24.15-.09s13.17.49,11.78-9.59c-1.1-8.03-12.46-7.05-12.46-7.05l-24.58.14Z"/>
    </g>
  </g>
  <g>
    <g>
      <path class="cls-3" d="M172.15,209.15l-108.68-.15s-5.6.54-8.15,4.29c-1.02,1.5-1.56,3.62-1.14,6.62,1,7.19,13.13,6.8,13.13,6.8h104.47"/>
      <path class="cls-6" d="M243.65,181.38c3.6,26.6-19.89,27.36-19.89,27.36l-54.88.43s-10.15-.05-8.85,10.29c1.03,8.14,13.14,7.22,13.14,7.22l51.23-.32s40.21.62,36.2-45.98c0,0-.23-6.62-9.04-6.33-8.81.3-7.91,7.34-7.91,7.34Z"/>
    </g>
    <g>
      <path class="cls-1" d="M115.25,177.1H38.51s-5.42-.13-7.44,4.06c-.68,1.42-1.21,2.77-1.26,4.99-.18,7.54,8.38,7.69,8.38,7.69h76.39"/>
      <path class="cls-6" d="M147.67,177l-32.85.1s-8.44.39-8.7,8.57c-.24,7.68,8.44,8.17,8.44,8.17l34.22-.24,24.15-.09s13.17.49,11.78-9.59c-1.1-8.03-12.46-7.05-12.46-7.05l-24.58.14Z"/>
    </g>
  </g>
</svg>